# xmcd
#
# Track frame offsets:
#	150
#	9969
#	21529
#	35386
#	45642
#	61730
#	75995
#	95911
#	109750
#	121142
#	134481
#	145065
#	157794
#	171908
#	180758
#
# Disc length: 2602 seconds
#
# Revision: 1
# Processed by: cddbd v1.5.2PL0 Copyright (c) Steve Scherf et al.
# Submitted via: audiograbber 1.83.01
#
DISCID=b30a280f
DTITLE=Sciortino Francoise - French Guitar
DYEAR=2010
DGENRE=Ragtime
TTITLE0=Caribou Express
TTITLE1=Rive Droite
TTITLE2=Canicule Blues
TTITLE3=Folk Song
TTITLE4=Bigot's Farm
TTITLE5=Angelo
TTITLE6=Celtic Way
TTITLE7=Sunrise Flower Waltz
TTITLE8=Charles et Stone
TTITLE9=Rive Gauche
TTITLE10=Blues for Jerry
TTITLE11=Gypsy Rag
TTITLE12=Chicken Blues
TTITLE13=Kabel  et Mimine
TTITLE14=Romantique Fiction
EXTD=
EXTT0=
EXTT1=
EXTT2=
EXTT3=
EXTT4=
EXTT5=
EXTT6=
EXTT7=
EXTT8=
EXTT9=
EXTT10=
EXTT11=
EXTT12=
EXTT13=
EXTT14=
PLAYORDER=
